<?xml version="1.0" standalone="no"?>
<svg xmlns:xlink="http://www.w3.org/1999/xlink" id="wave" style="transform:rotate(180deg); transition: 0.3s" viewBox="0 0 1440 380" version="1.1" xmlns="http://www.w3.org/2000/svg"><defs><linearGradient id="sw-gradient-0" x1="0" x2="0" y1="1" y2="0"><stop stop-color="rgba(232.552, 51.943, 116.564, 1)" offset="0%"/><stop stop-color="rgba(255, 11, 123.099, 1)" offset="100%"/></linearGradient></defs><path style="transform:translate(0, 0px); opacity:1" fill="url(#sw-gradient-0)" d="M0,266L60,228C120,190,240,114,360,114C480,114,600,190,720,183.7C840,177,960,89,1080,44.3C1200,0,1320,0,1440,6.3C1560,13,1680,25,1800,63.3C1920,101,2040,165,2160,209C2280,253,2400,279,2520,240.7C2640,203,2760,101,2880,95C3000,89,3120,177,3240,183.7C3360,190,3480,114,3600,101.3C3720,89,3840,139,3960,152C4080,165,4200,139,4320,126.7C4440,114,4560,114,4680,139.3C4800,165,4920,215,5040,209C5160,203,5280,139,5400,126.7C5520,114,5640,152,5760,177.3C5880,203,6000,215,6120,228C6240,241,6360,253,6480,253.3C6600,253,6720,241,6840,253.3C6960,266,7080,304,7200,266C7320,228,7440,114,7560,63.3C7680,13,7800,25,7920,82.3C8040,139,8160,241,8280,247C8400,253,8520,165,8580,120.3L8640,76L8640,380L8580,380C8520,380,8400,380,8280,380C8160,380,8040,380,7920,380C7800,380,7680,380,7560,380C7440,380,7320,380,7200,380C7080,380,6960,380,6840,380C6720,380,6600,380,6480,380C6360,380,6240,380,6120,380C6000,380,5880,380,5760,380C5640,380,5520,380,5400,380C5280,380,5160,380,5040,380C4920,380,4800,380,4680,380C4560,380,4440,380,4320,380C4200,380,4080,380,3960,380C3840,380,3720,380,3600,380C3480,380,3360,380,3240,380C3120,380,3000,380,2880,380C2760,380,2640,380,2520,380C2400,380,2280,380,2160,380C2040,380,1920,380,1800,380C1680,380,1560,380,1440,380C1320,380,1200,380,1080,380C960,380,840,380,720,380C600,380,480,380,360,380C240,380,120,380,60,380L0,380Z"/></svg>